<svg width="32" height="32" viewBox="0 0 32 32" fill="none" xmlns="http://www.w3.org/2000/svg">
<path fill-rule="evenodd" clip-rule="evenodd" d="M4.76172 13.6579C4.76172 13.1613 5.16426 12.7588 5.66082 12.7588H7.9459C8.44247 12.7588 8.84501 13.1613 8.84501 13.6579C8.84501 14.1545 8.44247 14.557 7.9459 14.557H5.66082C5.16426 14.557 4.76172 14.1545 4.76172 13.6579Z" fill="#0045DC"/>
<path fill-rule="evenodd" clip-rule="evenodd" d="M4.76172 17.0847C4.76172 16.5881 5.16426 16.1855 5.66082 16.1855H15.9436C16.4402 16.1855 16.8427 16.5881 16.8427 17.0847C16.8427 17.5812 16.4402 17.9838 15.9436 17.9838H5.66082C5.16426 17.9838 4.76172 17.5812 4.76172 17.0847Z" fill="#0045DC"/>
<path fill-rule="evenodd" clip-rule="evenodd" d="M10.4746 13.6579C10.4746 13.1613 10.8772 12.7588 11.3737 12.7588H13.6588C14.1554 12.7588 14.5579 13.1613 14.5579 13.6579C14.5579 14.1545 14.1554 14.557 13.6588 14.557H11.3737C10.8772 14.557 10.4746 14.1545 10.4746 13.6579Z" fill="#0045DC"/>
<path fill-rule="evenodd" clip-rule="evenodd" d="M1.33398 3.94592C1.33398 2.50283 2.5038 1.33301 3.9469 1.33301H28.0544C29.4975 1.33301 30.6673 2.50283 30.6673 3.94592V18.7989H28.8691V3.94592C28.8691 3.49595 28.5044 3.13122 28.0544 3.13122H3.9469C3.49693 3.13122 3.1322 3.49595 3.1322 3.94592V19.3701C3.1322 19.8201 3.49693 20.1848 3.9469 20.1848H19.4854V21.9831H3.9469C2.5038 21.9831 1.33398 20.8132 1.33398 19.3701V3.94592Z" fill="#0045DC"/>
<path fill-rule="evenodd" clip-rule="evenodd" d="M29.7675 6.55895H2.23242V4.76074H29.7675V6.55895Z" fill="#0045DC"/>
<path fill-rule="evenodd" clip-rule="evenodd" d="M29.7675 9.98669H2.23242V8.18848H29.7675V9.98669Z" fill="#0045DC"/>
<path fill-rule="evenodd" clip-rule="evenodd" d="M20.3841 18.9398V21.8563C20.3841 24.787 22.0339 27.455 24.6265 28.7724C27.219 27.455 28.8688 24.7871 28.8688 21.8563V18.9398C26.0329 17.8187 23.2201 17.8187 20.3841 18.9398ZM19.1199 17.5208C22.78 15.8941 26.473 15.8941 30.1331 17.5208C30.4577 17.6651 30.667 17.9871 30.667 18.3424V21.8563C30.667 25.633 28.4429 29.0555 24.9916 30.5894C24.7592 30.6927 24.4938 30.6927 24.2613 30.5894C20.8102 29.0555 18.5859 25.633 18.5859 21.8563V18.3424C18.5859 17.9871 18.7952 17.6651 19.1199 17.5208Z" fill="#00AEED"/>
<path fill-rule="evenodd" clip-rule="evenodd" d="M27.0806 21.6354C27.4317 21.9865 27.4317 22.5558 27.0806 22.9069L24.6569 25.3306C24.4883 25.4993 24.2596 25.594 24.0212 25.594C23.7827 25.594 23.554 25.4993 23.3854 25.3306L22.1735 24.1188C21.8224 23.7676 21.8224 23.1984 22.1735 22.8472C22.5246 22.4961 23.0939 22.4961 23.445 22.8472L24.0211 23.4233L25.809 21.6354C26.1601 21.2843 26.7294 21.2843 27.0806 21.6354Z" fill="#00AEED"/>
</svg>
